<svg xmlns="http://www.w3.org/2000/svg" width="380" height="367" fill="none"><g clip-path="url(#a)"><g clip-path="url(#b)"><path stroke="url(#c)" stroke-dasharray="0.99 0.99" stroke-opacity=".15" d="M26 208.862v-238.7m25 238.7v-238.7m25 238.7v-238.7m25 238.7v-238.7m25 238.7v-238.7m25 238.7v-238.7m25 238.7v-238.7m25 238.7v-238.7m-25 250.635v-238.7m75 226.765v-238.7m25 238.7v-238.7m25 238.7v-238.7m25 238.7v-238.7m25 238.7v-238.7m27 200.906H0m378-24.865H0m378-24.864H0m378-24.865H0M378 71.61H0m378-24.865H0m378-24.864H0M378-2.984H0m378-24.864H0"/><path fill="url(#d)" fill-opacity=".2" fill-rule="evenodd" d="m392 402.707 402-402-.707-.707-402 402 .707.707Zm-6 0 402-402-.707-.707-402 402 .707.707Zm396-402-402 402-.707-.707 402-402 .707.707Zm-408 402 402-402-.707-.707-402 402 .707.707Zm396-402-402 402-.707-.707 402-402 .707.707Zm-408 402 402-402-.707-.707-402 402 .707.707Zm396-402-402 402-.707-.707 402-402 .707.707Zm-408 402 402-402-.707-.707-402 402 .707.707Zm396-402-402 402-.707-.707 402-402 .707.707Zm-408 402 402-402-.707-.707-402 402 .707.707Zm396-402-402 402-.707-.707 402-402 .707.707Zm-408 402 402-402-.707-.707-402 402 .707.707Zm396-402-402 402-.707-.707 402-402 .707.707Zm-408 402 402-402-.707-.707-402 402 .707.707Zm396-402-402 402-.707-.707 402-402 .707.707Zm-408 402 402-402-.707-.707-402 402 .707.707Zm396-402-402 402-.707-.707 402-402 .707.707Zm-408 402 402-402-.707-.707-402 402 .707.707Zm396-402-402 402-.707-.707 402-402 .707.707Zm-408 402 402-402-.707-.707-402 402 .707.707Zm396-402-402 402-.707-.707 402-402 .707.707Zm-408 402 402-402-.707-.707-402 402 .707.707Zm396-402-402 402-.707-.707 402-402 .707.707Zm-408 402 402-402-.707-.707-402 402 .707.707Zm396-402-402 402-.707-.707 402-402 .707.707Zm-408 402 402-402-.707-.707-402 402 .707.707Zm396-402-402 402-.707-.707 402-402 .707.707Zm-408 402 402-402-.707-.707-402 402 .707.707Zm396-402-402 402-.707-.707 402-402 .707.707Zm-408 402 402-402-.707-.707-402 402 .707.707Zm396-402-402 402-.707-.707 402-402 .707.707Zm-408 402 402-402-.707-.707-402 402 .707.707Zm396-402-402 402-.707-.707 402-402 .707.707Zm-408 402 402-402-.707-.707-402 402 .707.707Zm396-402-402 402-.707-.707 402-402 .707.707Zm-408 402 402-402-.707-.707-402 402 .707.707Zm396-402-402 402-.707-.707 402-402 .707.707Zm-408 402 402-402-.707-.707-402 402 .707.707Zm396-402-402 402-.707-.707 402-402 .707.707Zm-408 402 402-402-.707-.707-402 402 .707.707Zm396-402-402 402-.707-.707 402-402 .707.707Zm-408 402 402-402-.707-.707-402 402 .707.707Zm396-402-402 402-.707-.707 402-402 .707.707Zm-408 402 402-402-.707-.707-402 402 .707.707Zm396-402-402 402-.707-.707 402-402 .707.707Zm-408 402 402-402-.707-.707-402 402 .707.707Zm396-402-402 402-.707-.707 402-402 .707.707Zm-408 402 402-402-.707-.707-402 402 .707.707Zm396-402-402 402-.707-.707 402-402 .707.707Zm-408 402 402-402-.707-.707-402 402 .707.707Zm396-402-402 402-.707-.707 402-402 .707.707Zm-408 402 402-402-.707-.707-402 402 .707.707Zm396-402-402 402-.707-.707 402-402 .707.707Zm-408 402 402-402-.707-.707-402 402 .707.707Zm396-402-402 402-.707-.707 402-402 .707.707Zm-408 402 402-402-.707-.707-402 402 .707.707Zm396-402-402 402-.707-.707 402-402 .707.707Zm-408 402 402-402-.707-.707-402 402 .707.707Zm396-402-402 402-.707-.707 402-402 .707.707Zm-408 402 402-402-.707-.707-402 402 .707.707Zm396-402-402 402-.707-.707 402-402 .707.707Zm-408 402 402-402-.707-.707-402 402 .707.707Zm396-402-402 402-.707-.707 402-402 .707.707Zm-408 402 402-402-.707-.707-402 402 .707.707Zm396-402-402 402-.707-.707 402-402 .707.707Zm-408 402 402-402-.707-.707-402 402 .707.707Zm396-402-402 402-.707-.707 402-402 .707.707Zm-408 402 402-402-.707-.707-402 402 .707.707Zm396-402-402 402-.707-.707 402-402 .707.707Zm-408 402 402-402-.707-.707-402 402 .707.707Zm396-402-402 402-.707-.707 402-402 .707.707Zm-408 402 402-402-.707-.707-402 402 .707.707Zm396-402-402 402-.707-.707 402-402 .707.707Zm-408 402 402-402-.707-.707-402 402 .707.707Zm396-402-402 402-.707-.707 402-402 .707.707Zm-408 402 402-402-.707-.707-402 402 .707.707Zm396-402-402 402-.707-.707 402-402 .707.707Zm-408 402 402-402-.707-.707-402 402 .707.707Zm396-402-402 402-.707-.707 402-402 .707.707Zm-408 402 402-402-.707-.707-402 402 .707.707Zm396-402-402 402-.707-.707 402-402 .707.707Zm-408 402 402-402-.707-.707-402 402 .707.707Zm396-402-402 402-.707-.707 402-402 .707.707Zm-408 402 402-402-.707-.707-402 402 .707.707Zm396-402-402 402-.707-.707 402-402 .707.707Zm-408 402 402-402-.707-.707-402 402 .707.707Zm396-402-402 402-.707-.707 402-402 .707.707Zm-408 402 402-402-.707-.707-402 402 .707.707Zm396-402-402 402-.707-.707 402-402 .707.707Zm-408 402 402-402-.707-.707-402 402 .707.707Zm396-402-402 402-.707-.707 402-402 .707.707Zm-408 402 402-402-.707-.707-402 402 .707.707Zm396-402-402 402-.707-.707 402-402 .707.707Zm-408 402 402-402-.707-.707-402 402 .707.707Zm396-402-402 402-.707-.707 402-402 .707.707Zm-408 402 402-402-.707-.707-402 402 .707.707Zm396-402-402 402-.707-.707 402-402 .707.707Zm-408 402 402-402-.707-.707-402 402 .707.707Zm396-402-402 402-.707-.707 402-402 .707.707Zm-408 402 402-402-.707-.707-402 402 .707.707Zm396-402-402 402-.707-.707 402-402 .707.707Zm-408 402 402-402-.707-.707-402 402 .707.707Zm396-402-402 402-.707-.707 402-402 .707.707Zm-408 402 402-402-.707-.707-402 402 .707.707Zm396-402-402 402-.707-.707 402-402 .707.707Zm-408 402 402-402-.707-.707-402 402 .707.707Zm396-402-402 402-.707-.707 402-402 .707.707Zm-408 402 402-402-.707-.707-402 402 .707.707Zm396-402-402 402-.707-.707 402-402 .707.707Zm-408 402 402-402-.707-.707-402 402 .707.707Zm396-402-402 402-.707-.707 402-402 .707.707Zm-408 402 402-402-.707-.707-402 402 .707.707Zm396-402-402 402-.707-.707 402-402 .707.707Zm-408 402 402-402-.707-.707-402 402 .707.707Zm396-402-402 402-.707-.707 402-402 .707.707Zm-408 402 402-402-.707-.707-402 402 .707.707Zm396-402-402 402-.707-.707 402-402L98 .707Zm-408 402 402-402L91.293 0l-402 402 .707.707Zm396-402-402 402-.707-.707 402-402L86 .707Zm-408 402 402-402L79.293 0l-402 402 .707.707Zm396-402-402 402-.707-.707 402-402L74 .707Zm-408 402 402-402L67.293 0l-402 402 .707.707Zm396-402-402 402-.707-.707 402-402L62 .707Zm-408 402 402-402L55.293 0l-402 402 .707.707Zm396-402-402 402-.707-.707 402-402L50 .707Zm-408 402 402-402L43.293 0l-402 402 .707.707Zm396-402-402 402-.707-.707 402-402L38 .707Zm-408 402 402-402L31.293 0l-402 402 .707.707Zm396-402-402 402-.707-.707 402-402L26 .707Zm-408 402 402-402L19.293 0l-402 402 .707.707Zm396-402-402 402-.707-.707 402-402L14 .707Zm-408 402L8 .707 7.293 0l-402 402 .707.707ZM2 .707l-402 402-.707-.707 402-402L2 .707Zm-408 402 402-402L-4.707 0l-402 402 .707.707Zm396-402-402 402-.707-.707 402-402 .707.707Z" clip-rule="evenodd" style="mix-blend-mode:plus-lighter"/><g filter="url(#e)"><path fill="url(#f)" fill-opacity=".1" d="M23 33c0-6.627 5.373-12 12-12h310c6.627 0 12 5.373 12 12v111H23V33Z"/><path stroke="url(#g)" stroke-opacity=".09" d="M35 21.5h310c6.351 0 11.5 5.149 11.5 11.5v110.5h-333V33c0-6.351 5.149-11.5 11.5-11.5Z"/><mask id="h" fill="#fff"><path d="M23 21h334v41H23V21Z"/></mask><path fill="#fff" fill-opacity=".02" d="M23 21h334v41H23V21Z"/><path fill="#9AAFFE" fill-opacity=".07" d="M357 61H23v2h334v-2Z" mask="url(#h)"/><path fill="#CCD8FF" d="M39.966 46v-9.8h3.542c.97 0 1.722.224 2.254.672.541.448.812 1.031.812 1.75 0 .541-.14.994-.42 1.358-.27.355-.611.607-1.022.756.383.121.714.303.994.546.28.243.5.527.658.854.159.327.238.69.238 1.092 0 .523-.121.994-.364 1.414a2.46 2.46 0 0 1-1.05.994c-.467.243-1.05.364-1.75.364h-3.892Zm1.484-1.26h2.142c.625 0 1.101-.135 1.428-.406.336-.27.504-.681.504-1.232 0-.56-.177-.975-.532-1.246-.355-.27-.83-.406-1.428-.406H41.45v3.29Zm0-4.522h1.946c.55 0 .966-.121 1.246-.364s.42-.583.42-1.022c0-.439-.14-.78-.42-1.022-.27-.243-.7-.364-1.288-.364H41.45v2.772Zm10.086 5.95c-.682 0-1.284-.154-1.806-.462a3.273 3.273 0 0 1-1.232-1.288c-.29-.55-.434-1.18-.434-1.89 0-.737.144-1.377.434-1.918a3.106 3.106 0 0 1 1.218-1.26c.532-.308 1.143-.462 1.834-.462.672 0 1.26.15 1.764.448.504.29.896.686 1.176 1.19.289.504.434 1.078.434 1.722 0 .13-.005.243-.014.336 0 .093-.01.205-.028.336h-5.334c.028.392.126.742.294 1.05.168.299.396.537.686.714.289.168.62.252.994.252.4 0 .742-.089 1.022-.266.289-.187.504-.448.644-.784h1.54c-.122.42-.327.803-.616 1.148-.28.345-.635.62-1.064.826-.43.205-.934.308-1.512.308Zm-1.974-4.298h3.85c-.02-.541-.21-.966-.574-1.274-.364-.317-.808-.476-1.33-.476-.467 0-.892.145-1.274.434-.383.29-.607.728-.672 1.316ZM61.608 46v-8.554H58.71V36.2h7.28v1.246h-2.898V46h-1.484Zm5.534 0v-9.8h1.484v3.85c.233-.373.56-.658.98-.854a2.96 2.96 0 0 1 1.316-.308c.802 0 1.451.257 1.946.77.504.504.756 1.26.756 2.268V46h-1.47v-3.892c0-.625-.14-1.106-.42-1.442-.28-.345-.696-.518-1.246-.518-.56 0-1.013.191-1.358.574-.336.373-.504.891-.504 1.554V46h-1.484Zm11.163.168c-.681 0-1.283-.154-1.806-.462a3.274 3.274 0 0 1-1.232-1.288c-.29-.55-.434-1.18-.434-1.89 0-.737.145-1.377.434-1.918.29-.541.695-.961 1.218-1.26.532-.308 1.143-.462 1.834-.462.672 0 1.26.15 1.764.448.504.29.896.686 1.176 1.19.29.504.434 1.078.434 1.722 0 .13-.005.243-.014.336 0 .093-.01.205-.028.336h-5.334c.028.392.126.742.294 1.05.168.299.397.537.686.714.29.168.62.252.994.252.401 0 .742-.089 1.022-.266a1.67 1.67 0 0 0 .644-.784h1.54a3.12 3.12 0 0 1-.616 1.148c-.28.345-.635.62-1.064.826-.43.205-.933.308-1.512.308Zm-1.974-4.298h3.85c-.019-.541-.21-.966-.574-1.274-.364-.317-.807-.476-1.33-.476-.467 0-.891.145-1.274.434-.383.29-.607.728-.672 1.316ZM86.573 46v-9.8h6.076v1.246h-4.592v2.87h3.962v1.246h-3.962V46h-1.484Zm8.137-8.162a.98.98 0 0 1-.7-.28.997.997 0 0 1-.28-.714c0-.27.094-.5.28-.686a.98.98 0 0 1 .7-.28.95.95 0 0 1 .7.28.91.91 0 0 1 .294.686c0 .28-.098.518-.294.714a.95.95 0 0 1-.7.28ZM93.968 46v-6.944h1.484V46h-1.484Zm3.17 0v-6.944h1.428l.042 1.176c.233-.42.55-.747.952-.98.41-.243.891-.364 1.442-.364v1.554h-.406c-.663 0-1.157.173-1.484.518-.327.336-.49.854-.49 1.554V46h-1.484Zm7.693.168a3.822 3.822 0 0 1-1.484-.28 2.783 2.783 0 0 1-1.092-.826 2.336 2.336 0 0 1-.49-1.246h1.498c.066.336.238.611.518.826.28.215.63.322 1.05.322.374 0 .677-.08.91-.238a.774.774 0 0 0 .35-.658c0-.233-.079-.415-.238-.546a1.586 1.586 0 0 0-.588-.308 7.077 7.077 0 0 0-.77-.196 9.333 9.333 0 0 1-1.218-.378 2.388 2.388 0 0 1-.91-.616c-.233-.261-.35-.611-.35-1.05 0-.43.112-.798.336-1.106.234-.317.551-.56.952-.728a3.49 3.49 0 0 1 1.358-.252c.756 0 1.386.191 1.89.574.504.373.784.924.84 1.652h-1.428c-.037-.327-.177-.579-.42-.756-.233-.177-.536-.266-.91-.266-.345 0-.625.07-.84.21-.214.13-.322.331-.322.602 0 .187.075.345.224.476.15.121.341.224.574.308.243.075.495.145.756.21.476.103.901.229 1.274.378.374.15.672.36.896.63.224.27.341.644.35 1.12 0 .43-.121.807-.364 1.134a2.292 2.292 0 0 1-.966.742c-.401.177-.863.266-1.386.266Zm6.617-.168c-.69 0-1.222-.168-1.596-.504-.373-.336-.56-.887-.56-1.652v-3.542h-1.05v-1.246h1.05v-1.68h1.484v1.68h1.764v1.246h-1.764v3.542c0 .355.08.593.238.714.159.121.406.182.742.182h.784V46h-1.092Zm223.56-9.784a5.866 5.866 0 0 0-8.293.004 5.861 5.861 0 0 0 .004 8.29 5.865 5.865 0 0 0 8.289 0 5.824 5.824 0 0 0 .055-8.239l-.055-.055Zm-1.287 7.008a4.048 4.048 0 0 1-5.723-.002 4.044 4.044 0 0 1 .002-5.72 4.048 4.048 0 0 1 5.722 5.722h-.001ZM339 47.178a1.323 1.323 0 0 1-2.259.936l-2.436-2.436.145-.1a6.101 6.101 0 0 0 1.626-1.627l.099-.144 2.437 2.436a1.328 1.328 0 0 1 .388.935Z"/></g><path fill="url(#i)" d="M0 216h380v151H0z"/></g></g><defs><linearGradient id="c" x1="-72.5" x2="187.132" y1="-140.236" y2="222.135" gradientUnits="userSpaceOnUse"><stop stop-color="#B5D3FD" stop-opacity="0"/><stop offset=".457" stop-color="#B5D3FD"/><stop offset=".758" stop-color="#B5D3FD" stop-opacity="0"/></linearGradient><linearGradient id="d" x1="591.793" x2="32.793" y1="-90.5" y2="377" gradientUnits="userSpaceOnUse"><stop stop-color="#fff"/><stop offset=".758" stop-color="#fff" stop-opacity="0"/></linearGradient><linearGradient id="f" x1="190" x2="190" y1="21" y2="144" gradientUnits="userSpaceOnUse"><stop stop-color="#6182FE"/><stop offset="1" stop-color="#6182FE" stop-opacity="0"/></linearGradient><linearGradient id="g" x1="190" x2="190" y1="21" y2="144" gradientUnits="userSpaceOnUse"><stop stop-color="#9AAFFE"/><stop offset="1" stop-color="#9AAFFE" stop-opacity="0"/></linearGradient><linearGradient id="i" x1="190" x2="190" y1="216" y2="367" gradientUnits="userSpaceOnUse"><stop stop-color="#000211" stop-opacity="0"/><stop offset="1" stop-color="#000211"/></linearGradient><clipPath id="a"><path fill="#fff" d="M0 0h380v367H0z"/></clipPath><clipPath id="b"><path fill="#fff" d="M0 0h380v367H0z"/></clipPath><filter id="e" width="342" height="131" x="19" y="17" color-interpolation-filters="sRGB" filterUnits="userSpaceOnUse"><feFlood flood-opacity="0" result="BackgroundImageFix"/><feGaussianBlur in="BackgroundImageFix" stdDeviation="2"/><feComposite in2="SourceAlpha" operator="in" result="effect1_backgroundBlur_2998_3313"/><feBlend in="SourceGraphic" in2="effect1_backgroundBlur_2998_3313" result="shape"/></filter></defs></svg>