<?xml version="1.0" encoding="utf-8"?>
<!-- Generator: Adobe Illustrator 21.0.0, SVG Export Plug-In . SVG Version: 6.00 Build 0)  -->
<svg version="1.1" id="Layer_1" xmlns="http://www.w3.org/2000/svg" xmlns:xlink="http://www.w3.org/1999/xlink" x="0px" y="0px"
	 viewBox="0 0 240 56.5" style="enable-background:new 0 0 240 56.5;" xml:space="preserve">
<style type="text/css">
	.st0{clip-path:url(#SVGID_2_);fill:#007AFF;}
</style>
<g>
	<defs>
		<rect id="SVGID_1_" y="0" width="240" height="56.5"/>
	</defs>
	<clipPath id="SVGID_2_">
		<use xlink:href="#SVGID_1_"  style="overflow:visible;"/>
	</clipPath>
	<path class="st0" d="M217.1,25.6c-0.2-1.3-0.4-3.1-1.7-4.5c-1.1-1.2-2.9-1.8-4.5-1.8c-2.2,0-3.8,1.1-4.7,2.1
		c-1.3,1.4-1.6,2.9-1.9,4.2L217.1,25.6L217.1,25.6z M226.3,37.4c-1.1,1.6-2.2,3.2-3.8,4.7c-2.7,2.6-6.8,4.5-11.8,4.5
		c-9.3,0-15.9-6-15.9-16.4c0-7.7,3.7-17.5,16.1-17.5c1.9,0,7.3,0.2,11.3,4.6c4.1,4.4,4.3,10.6,4.4,14.2h-22.4
		c-0.1,4,2.2,7.9,7.1,7.9c5.1,0,6.8-3.3,7.9-5.6L226.3,37.4L226.3,37.4z M172.8,16.6c0.9-1,1.5-1.7,3.1-2.5c1.4-0.6,3.5-1.1,5.7-1.1
		c1.9,0,4,0.4,5.6,1.3c3.3,1.8,4.1,4.6,4.1,9.5v21.7h-9.2V27.6c0-2.9-0.1-3.9-0.4-4.7c-0.7-1.7-2.3-2.4-4.1-2.4
		c-4.9,0-4.9,4-4.9,7.9v17.1h-9.3V13.8h9.3L172.8,16.6L172.8,16.6z M157.6,5.7c0,2.8-2.2,5-5,5c-2.7,0-5-2.3-5-5c0-2.8,2.2-5,5-5
		C155.4,0.7,157.6,3,157.6,5.7 M148,13.7h9.1v31.8H148V13.7z M141.8,45.5h-9.3V0h9.3V45.5z M118.9,25.6c-0.2-1.3-0.4-3.1-1.8-4.5
		c-1.1-1.2-2.9-1.8-4.5-1.8c-2.2,0-3.8,1.1-4.7,2.1c-1.3,1.4-1.6,2.9-1.9,4.2L118.9,25.6L118.9,25.6z M128.2,37.4
		c-1.1,1.6-2.2,3.2-3.8,4.7c-2.7,2.6-6.8,4.5-11.9,4.5c-9.3,0-15.9-6-15.9-16.4c0-7.7,3.7-17.5,16.1-17.5c1.9,0,7.3,0.2,11.3,4.6
		c4.1,4.4,4.3,10.6,4.5,14.2h-22.5c-0.1,4,2.2,7.9,7.2,7.9c5.1,0,6.8-3.3,8-5.6L128.2,37.4L128.2,37.4z M92,35.8
		c0-0.1-0.2-0.1-0.2,0c-0.2,0.3-0.4,0.7-0.7,1c-1.9,2.2-4.2,2.2-4.7,2.2c-4.9,0-7-5.3-7-9.5c0-3.8,1.7-9.6,6.7-9.6
		c1.4,0,2.6,0.5,3.5,1.1c1.3,0.9,1.9,1.8,2.4,2.8c0.1,0.1,0.2,0.1,0.2,0.1c0.7-2.6,2-5.1,4-7.1c-3.6-3.4-7.8-4-10.5-4
		c-10.5,0-15.8,7.8-15.8,17c0,13,9.6,16.6,15.6,16.6c3.5,0,6.6-1.2,9-2.9c0.5-0.4,1-0.8,1.4-1.2C94.1,40.7,92.7,38.5,92,35.8
		L92,35.8z M66.2,5.7c0,2.8-2.2,5-5,5c-2.7,0-5-2.3-5-5c0-2.8,2.2-5,5-5C64,0.7,66.2,3,66.2,5.7 M56.6,13.7h9.1v31.8h-9.1V13.7z
		 M43.6,17c2-1.8,4.3-3.2,9.1-3.6v8.3l-3.1,0.5c-4.4,0.8-5.8,1.5-5.8,5.5v17.9h-9.3V13.7h9V17z M15.6,19.6c-1.7,0-3.4,0.7-4.8,2.6
		c-1.3,1.8-1.9,4.5-1.9,7.5c0,4,1,6.5,2.2,7.8c1.1,1.2,2.6,1.8,4.1,1.8c4.5,0,6.5-4.9,6.5-9.9c0-4.2-1.1-8.6-4.9-9.6
		C16.4,19.7,16,19.6,15.6,19.6L15.6,19.6z M8.2,16.8c0.3-0.4,0.6-0.7,0.9-1c1.6-1.5,4.4-2.8,7.9-2.8c7.7,0,13.7,5.9,13.7,16.5
		c0,6.5-2.8,16.6-13.6,16.6c-3.5,0-5.3-1.2-7.8-2.7v13.1H0V13.8h8.2V16.8z"/>
	<path class="st0" d="M233.1,3.4c1.3,0,2.4,0.3,3.5,0.9c1.1,0.6,1.9,1.5,2.5,2.5c0.6,1.1,0.9,2.2,0.9,3.4c0,1.2-0.3,2.4-0.9,3.4
		c-0.6,1.1-1.4,1.9-2.5,2.5c-1.1,0.6-2.2,0.9-3.5,0.9c-1.3,0-2.4-0.3-3.5-0.9c-1.1-0.6-1.9-1.5-2.5-2.5c-0.6-1.1-0.9-2.2-0.9-3.4
		c0-1.2,0.3-2.4,0.9-3.4c0.6-1.1,1.4-1.9,2.5-2.5C230.7,3.7,231.8,3.4,233.1,3.4 M233.1,15.5c1,0,1.9-0.2,2.7-0.7
		c0.8-0.5,1.4-1.1,1.9-1.9c0.5-0.8,0.7-1.7,0.7-2.6c0-0.9-0.2-1.8-0.7-2.6c-0.5-0.8-1.1-1.4-1.9-1.9c-0.8-0.5-1.7-0.7-2.6-0.7
		c-1,0-1.9,0.2-2.7,0.7c-0.8,0.5-1.4,1.1-1.9,1.9c-0.5,0.8-0.7,1.7-0.7,2.6c0,0.9,0.2,1.8,0.7,2.6c0.5,0.8,1.1,1.4,1.9,1.9
		C231.2,15.3,232.1,15.5,233.1,15.5 M236,9.1c0,0.5-0.1,0.9-0.3,1.3c-0.2,0.4-0.5,0.6-0.9,0.8l1.4,2.1h-1.9l-1-1.8h-1.2v1.8h-1.7
		V6.9h2.8c0.9,0,1.5,0.2,2,0.6C235.8,7.8,236,8.4,236,9.1 M232.1,10.2h1.2c0.4,0,0.6-0.1,0.8-0.3c0.2-0.2,0.3-0.4,0.3-0.8
		c0-0.3-0.1-0.6-0.3-0.8c-0.2-0.2-0.5-0.3-0.8-0.3h-1.2V10.2z"/>
</g>
</svg>
